<svg xmlns="http://www.w3.org/2000/svg" viewBox="0 0 59.53 24.5"><defs><style>.cls-1{fill:#b2b2b2;stroke:#1d1d1b;stroke-miterlimit:10;}</style></defs><g id="katman_2" data-name="katman 2"><g id="katman_1-2" data-name="katman 1"><path class="cls-1" d="M.6,23.91,4.13,4.06A4.17,4.17,0,0,1,7.4.56,4.28,4.28,0,0,1,10.94,1.7l12.7,13.53,0-2.23a7.67,7.67,0,0,0,5,2.94c.05.36.54,4.61-1.68,6.7A5,5,0,0,1,25,23.78a4.19,4.19,0,0,1-4.15-1.24c-1.36-1.39-5.69-5.81-11.53-11.84Q8.16,17.31,7,23.93Z"/><path class="cls-1" d="M55.56,1.28s-6.89,1.77-8.24,5.81H32.52A1.82,1.82,0,0,0,30.61,9a1.78,1.78,0,0,0,1.92,1.22l15.09.07a5.89,5.89,0,0,1,3.17,1.11,5.59,5.59,0,0,1,1.87,2.28A5.65,5.65,0,0,1,53,16.79a8.09,8.09,0,0,1-3.18,5.07,9.34,9.34,0,0,1-5.37,2.05c-4.51.22-6.62,0-14.78,0l-1.68,0a8.44,8.44,0,0,0,1.77-2.71,8.18,8.18,0,0,0,.59-3H43.87a2.14,2.14,0,0,0,1.46-.39,1.91,1.91,0,0,0,.81-1.26,1.94,1.94,0,0,0-.47-1.46,2.38,2.38,0,0,0-1.83-.81L28.9,14.1a4.92,4.92,0,0,1-3.2-1.26,6.15,6.15,0,0,1-1.82-4.72,6.44,6.44,0,0,1,1.53-3.56,9.73,9.73,0,0,1,6.94-3.28Z"/></g></g></svg>